<svg width="64" height="64" viewBox="0 0 64 64" fill="none" xmlns="http://www.w3.org/2000/svg">
  <g clip-path="url(#clip0_202_7)">
    <circle cx="31.5" cy="29.5" r="15.5" fill="white" />
    <path
      d="M32 5.33331C20.8 5.33331 10.6667 13.92 10.6667 27.2C10.6667 35.68 17.2 45.6533 30.24 57.12C31.2 57.9733 32.8267 57.9733 33.7867 57.12C46.8 45.6533 53.3333 35.68 53.3333 27.2C53.3333 13.92 43.2 5.33331 32 5.33331ZM20.5067 33.3066C23.68 30.8266 27.6533 29.3333 32 29.3333C36.3467 29.3333 40.32 30.8266 43.4933 33.3066C41.2 37.28 36.9333 40 32 40C27.0667 40 22.8 37.28 20.5067 33.3066ZM32 16C34.9333 16 37.3333 18.4 37.3333 21.3333C37.3333 24.2666 34.9333 26.6666 32 26.6666C29.0667 26.6666 26.6667 24.2666 26.6667 21.3333C26.6667 18.4 29.0667 16 32 16Z"
      fill="#38bdf8" />
  </g>
  <defs>
    <clipPath id="clip0_202_7">
      <rect width="64" height="64" fill="white" />
    </clipPath>
  </defs>
</svg>
