<svg width="36" height="36" viewBox="0 0 36 36" fill="none" xmlns="http://www.w3.org/2000/svg">
<g clip-path="url(#clip0_1_205)">
<rect x="0.75" y="0.75" width="34.5" height="34.5" rx="9.25" stroke="#9475ed" stroke-width="1.5"/>
<g clip-path="url(#clip1_1_205)">
<path d="M23.7761 16.127H22.9483C21.9195 16.127 21.0855 16.9609 21.0855 17.9897C21.0855 19.0185 21.9195 19.8524 22.9483 19.8524H23.7761C24.8049 19.8524 25.6388 19.0185 25.6388 17.9897C25.6388 16.9609 24.8049 16.127 23.7761 16.127Z" stroke="#9475ed" stroke-width="1.5"/>
<path d="M16.3251 12.6085H18.8087C20.4049 12.6085 21.4771 12.6111 22.2769 12.7186C23.0409 12.8214 23.368 12.9989 23.5838 13.2147C23.7996 13.4305 23.977 13.7575 24.0797 14.5215C24.145 15.0067 24.1716 15.5921 24.1825 16.334H25.4246C25.3949 14.2812 25.2426 13.1173 24.4618 12.3366C23.492 11.3666 21.9309 11.3666 18.8087 11.3666H16.3251C13.2029 11.3666 11.6418 11.3666 10.6719 12.3366C9.70197 13.3065 9.70197 14.8676 9.70197 17.9897C9.70197 21.1119 9.70197 22.673 10.6719 23.6429C11.6418 24.6128 13.2029 24.6128 16.3251 24.6128H18.8087C21.9309 24.6128 23.492 24.6128 24.4618 23.6429C25.2426 22.8621 25.3949 21.6983 25.4246 19.6455H24.1825C24.1716 20.3873 24.145 20.9728 24.0797 21.4579C23.977 22.222 23.7996 22.549 23.5838 22.7649C23.368 22.9805 23.0409 23.1581 22.2769 23.2608C21.4771 23.3684 20.4049 23.371 18.8087 23.371H16.3251C14.7289 23.371 13.6567 23.3684 12.8569 23.2608C12.0928 23.1581 11.7658 22.9805 11.55 22.7649C11.3342 22.549 11.1567 22.222 11.054 21.4579C10.9464 20.6581 10.9438 19.5859 10.9438 17.9897C10.9438 16.3936 10.9464 15.3213 11.054 14.5215C11.1567 13.7575 11.3342 13.4305 11.55 13.2147C11.7658 12.9989 12.0928 12.8214 12.8569 12.7186C13.6567 12.6111 14.7289 12.6085 16.3251 12.6085Z" fill="#9475ed"/>
<path d="M13.6345 15.713H18.1879" stroke="#9475ed" stroke-width="1.5" stroke-linecap="round"/>
</g>
</g>
<defs>
<clipPath id="clip0_1_205">
<rect width="36" height="36" fill="white"/>
</clipPath>
<clipPath id="clip1_1_205">
<rect width="20" height="20" fill="white" transform="translate(8 8)"/>
</clipPath>
</defs>
</svg>
