<svg width="20" height="20" viewBox="0 0 20 20" fill="none" xmlns="http://www.w3.org/2000/svg">
<path d="M10 12.9999C11.6569 12.9999 13 11.6567 13 9.99988C13 8.34302 11.6569 6.99988 10 6.99988C8.34315 6.99988 7 8.34302 7 9.99988C7 11.6567 8.34315 12.9999 10 12.9999Z" stroke="black" stroke-linecap="round" stroke-linejoin="round"/>
<path d="M17 3.99988H3C1.89543 3.99988 1 4.89531 1 5.99988V13.9999C1 15.1044 1.89543 15.9999 3 15.9999H17C18.1046 15.9999 19 15.1044 19 13.9999V5.99988C19 4.89531 18.1046 3.99988 17 3.99988Z" stroke="black" stroke-linecap="round" stroke-linejoin="round"/>
<path d="M3 9.99988H3.01082M15.9892 9.99988H16H15.9892Z" stroke="black" stroke-linecap="round" stroke-linejoin="round"/>
</svg>
