<svg width="20" height="20" viewBox="0 0 20 20" fill="none" xmlns="http://www.w3.org/2000/svg">
<path d="M13.86 3C14.4381 2.99989 14.9983 3.18677 15.4454 3.52881C15.8925 3.87085 16.1987 4.34693 16.312 4.876L16.509 5.8H17.25C17.4312 5.80001 17.6063 5.86127 17.7429 5.97245C17.8795 6.08363 17.9684 6.23722 17.993 6.4048L18 6.5C18 6.66916 17.9344 6.83259 17.8152 6.96007C17.6961 7.08755 17.5316 7.17046 17.352 7.19347L17.25 7.2H16.809L16.921 7.72267C17.2324 7.80765 17.5059 7.98457 17.7004 8.22689C17.8949 8.46921 18.0001 8.76387 18 9.06667V13.7333C18 14.1046 17.842 14.4607 17.5607 14.7233C17.2794 14.9858 16.8978 15.1333 16.5 15.1333H16V16.0667C16 16.3142 15.8946 16.5516 15.7071 16.7266C15.5196 16.9017 15.2652 17 15 17C14.7348 17 14.4804 16.9017 14.2929 16.7266C14.1054 16.5516 14 16.3142 14 16.0667V15.1333H6V16.0667C6 16.3142 5.89464 16.5516 5.70711 16.7266C5.51957 16.9017 5.26522 17 5 17C4.73478 17 4.48043 16.9017 4.29289 16.7266C4.10536 16.5516 4 16.3142 4 16.0667V15.1333H3.5C3.10218 15.1333 2.72064 14.9858 2.43934 14.7233C2.15804 14.4607 2 14.1046 2 13.7333V9.06667C1.99994 8.76387 2.10506 8.46921 2.2996 8.22689C2.49414 7.98457 2.76761 7.80765 3.079 7.72267L3.19 7.2H2.75C2.55109 7.2 2.36032 7.12625 2.21967 6.99497C2.07902 6.8637 2 6.68565 2 6.5C2 6.31435 2.07902 6.1363 2.21967 6.00503C2.36032 5.87375 2.55109 5.8 2.75 5.8H3.49L3.688 4.876C3.8013 4.34693 4.10755 3.87085 4.55461 3.52881C5.00168 3.18677 5.56193 2.99989 6.14 3H13.86ZM16.5 8.6H3.5C3.36739 8.6 3.24021 8.64917 3.14645 8.73668C3.05268 8.8242 3 8.9429 3 9.06667V13.7333C3 13.8571 3.05268 13.9758 3.14645 14.0633C3.24021 14.1508 3.36739 14.2 3.5 14.2H16.5C16.6326 14.2 16.7598 14.1508 16.8536 14.0633C16.9473 13.9758 17 13.8571 17 13.7333V9.06667C17 8.9429 16.9473 8.8242 16.8536 8.73668C16.7598 8.64917 16.6326 8.6 16.5 8.6ZM6 10.4667C6.26522 10.4667 6.51957 10.565 6.70711 10.74C6.89464 10.9151 7 11.1525 7 11.4C7 11.6475 6.89464 11.8849 6.70711 12.06C6.51957 12.235 6.26522 12.3333 6 12.3333C5.73478 12.3333 5.48043 12.235 5.29289 12.06C5.10536 11.8849 5 11.6475 5 11.4C5 11.1525 5.10536 10.9151 5.29289 10.74C5.48043 10.565 5.73478 10.4667 6 10.4667ZM14 10.4667C14.2652 10.4667 14.5196 10.565 14.7071 10.74C14.8946 10.9151 15 11.1525 15 11.4C15 11.6475 14.8946 11.8849 14.7071 12.06C14.5196 12.235 14.2652 12.3333 14 12.3333C13.7348 12.3333 13.4804 12.235 13.2929 12.06C13.1054 11.8849 13 11.6475 13 11.4C13 11.1525 13.1054 10.9151 13.2929 10.74C13.4804 10.565 13.7348 10.4667 14 10.4667ZM13.86 3.93333H6.14C5.79319 3.93331 5.45709 4.04546 5.18889 4.25068C4.92069 4.4559 4.73697 4.74152 4.669 5.05893L4.109 7.66667H15.89L15.331 5.05893C15.2631 4.74168 15.0795 4.45618 14.8115 4.25097C14.5435 4.04577 14.2076 3.93353 13.861 3.93333H13.86Z" fill="#2A2A32"/>
</svg>
