<svg width="36" height="36" viewBox="0 0 36 36" fill="none" xmlns="http://www.w3.org/2000/svg">
<g clip-path="url(#clip0_1_292)">
<rect x="0.75" y="0.75" width="34.5" height="34.5" rx="9.25" stroke="#9475ed" stroke-width="1.5"/>
<path fill-rule="evenodd" clip-rule="evenodd" d="M17.224 15.8211C18.8502 15.8211 20.1686 14.5486 20.1686 12.9789C20.1686 11.4093 18.8502 10.1368 17.224 10.1368C15.5978 10.1368 14.2794 11.4093 14.2794 12.9789C14.2794 14.5486 15.5978 15.8211 17.224 15.8211ZM17.224 16.9579C19.5007 16.9579 21.3464 15.1765 21.3464 12.9789C21.3464 10.7814 19.5007 9 17.224 9C14.9473 9 13.1016 10.7814 13.1016 12.9789C13.1016 15.1765 14.9473 16.9579 17.224 16.9579ZM12.1609 18.8976C13.4832 18.2276 15.2892 17.9053 17.224 17.9053C17.6341 17.9053 18.037 17.9197 18.4296 17.9487C18.7539 17.9725 18.9968 18.2456 18.972 18.5587C18.9473 18.8717 18.6643 19.1061 18.34 19.0822C17.9785 19.0556 17.6055 19.0421 17.224 19.0421C15.3987 19.0421 13.8021 19.35 12.7084 19.9042C11.652 20.4395 11.1778 21.1258 11.1778 21.9763C11.1778 22.5884 11.306 22.7406 11.3136 22.7488L11.3137 22.7489C11.3143 22.7495 11.3166 22.752 11.3236 22.7564C11.3313 22.7612 11.349 22.771 11.3824 22.782C11.4521 22.8051 11.5839 22.8316 11.8157 22.8316H16.4388C16.764 22.8316 17.0277 23.0861 17.0277 23.4C17.0277 23.7139 16.764 23.9684 16.4388 23.9684H11.8157C11.1854 23.9684 10.7327 23.8263 10.4367 23.5078C10.14 23.1884 10 22.6906 10 21.9763C10 20.5867 10.8372 19.5684 12.1609 18.8976ZM22.1316 17.9053C20.8306 17.9053 19.7759 18.9232 19.7759 20.1789V21.3158C19.7759 22.5715 20.8306 23.5895 22.1316 23.5895C23.4326 23.5895 24.4872 22.5715 24.4872 21.3158V20.1789C24.4872 18.9232 23.4326 17.9053 22.1316 17.9053ZM20.9538 20.1789C20.9538 19.5511 21.4811 19.0421 22.1316 19.0421C22.7821 19.0421 23.3094 19.5511 23.3094 20.1789V21.3158C23.3094 21.9437 22.7821 22.4526 22.1316 22.4526C21.4811 22.4526 20.9538 21.9437 20.9538 21.3158V20.1789ZM22.7205 25.6369C24.0504 25.4697 25.1981 24.7437 25.9026 23.713C26.0817 23.451 26.0068 23.0984 25.7353 22.9255C25.4639 22.7526 25.0986 22.8249 24.9195 23.087C24.3216 23.9617 23.296 24.5368 22.1316 24.5368C20.9672 24.5368 19.9416 23.9617 19.3437 23.087C19.1646 22.8249 18.7993 22.7526 18.5278 22.9255C18.2564 23.0984 18.1814 23.451 18.3606 23.713C19.0651 24.7437 20.2128 25.4697 21.5427 25.6369V26.4316C21.5427 26.7455 21.8064 27 22.1316 27C22.4568 27 22.7205 26.7455 22.7205 26.4316V25.6369Z" fill="#9475ed"/>
</g>
<defs>
<clipPath id="clip0_1_292">
<rect width="36" height="36" fill="white"/>
</clipPath>
</defs>
</svg>
