<svg width="24" height="24" viewBox="0 0 24 24" fill="none" xmlns="http://www.w3.org/2000/svg">
<rect x="0.5" y="0.5" width="23" height="23" rx="6.5" stroke="#2A2A32"/>
<g clip-path="url(#clip0_1_835)">
<path d="M9.33333 9.86672H10.4H9.33333ZM13.6 14.1334H14.6667H13.6ZM14.6667 9.33339L9.33333 14.6667L14.6667 9.33339ZM11.2544 4.84272L10.0501 6.04485C9.85276 6.24257 9.58496 6.35384 9.30559 6.35419H7.40906C7.12956 6.35419 6.8615 6.46522 6.66386 6.66286C6.46622 6.8605 6.35519 7.12855 6.35519 7.40805V9.30459C6.35484 9.58396 6.24358 9.85175 6.04586 10.0491L4.84266 11.2555C4.6451 11.4531 4.53412 11.7211 4.53412 12.0006C4.53412 12.28 4.6451 12.548 4.84266 12.7457L6.04799 13.9499C6.14575 14.0477 6.22329 14.1638 6.27618 14.2915C6.32907 14.4193 6.35628 14.5562 6.35626 14.6945V16.591C6.35626 17.1734 6.82773 17.6449 7.41013 17.6449H9.30666C9.58613 17.6449 9.85386 17.7558 10.0512 17.9542L11.2565 19.1585C11.4542 19.356 11.7222 19.467 12.0016 19.467C12.281 19.467 12.549 19.356 12.7467 19.1585L13.9509 17.9531C14.1485 17.7558 14.4162 17.6449 14.6955 17.6449H16.592C16.8715 17.6449 17.1395 17.5338 17.3372 17.3362C17.5348 17.1385 17.6459 16.8705 17.6459 16.591V14.6945C17.6459 14.415 17.7568 14.1473 17.9552 13.9499L19.1595 12.7446C19.357 12.547 19.468 12.279 19.468 11.9995C19.468 11.7201 19.357 11.4521 19.1595 11.2545L17.9541 10.0502C17.7568 9.85265 17.6459 9.58487 17.6459 9.30565V7.40912C17.6459 7.12962 17.5348 6.86156 17.3372 6.66392C17.1395 6.46629 16.8715 6.35525 16.592 6.35525H14.6955C14.4161 6.3549 14.1483 6.24364 13.9509 6.04592L12.7445 4.84272C12.5469 4.64516 12.2789 4.53418 11.9995 4.53418C11.72 4.53418 11.452 4.64516 11.2544 4.84272V4.84272Z" stroke="#2A2A32"/>
</g>
<defs>
<clipPath id="clip0_1_835">
<rect width="16" height="16" fill="white" transform="translate(4 4)"/>
</clipPath>
</defs>
</svg>
