<svg width="36" height="36" viewBox="0 0 36 36" fill="none" xmlns="http://www.w3.org/2000/svg">
<g clip-path="url(#clip0_1_269)">
<rect x="0.75" y="0.75" width="34.5" height="34.5" rx="9.25" stroke="#9475ed" stroke-width="1.5"/>
<path d="M13.091 17.1558H16.3637M14.7273 15.4675V18.8441M20.4546 18H20.4628M22.9091 16.3117H22.9173M22.3528 12.0909H13.6473C12.8376 12.0911 12.0566 12.401 11.4554 12.9608C10.8543 13.5205 10.4756 14.2903 10.3926 15.1214C10.3877 15.1653 10.3844 15.2067 10.3787 15.2497C10.3124 15.8187 9.81824 20.0732 9.81824 21.3766C9.81824 22.0482 10.0768 22.6924 10.5372 23.1673C10.9975 23.6423 11.6218 23.9091 12.2728 23.9091C13.091 23.9091 13.5001 23.487 13.9091 23.0649L15.0661 21.8713C15.3729 21.5546 15.789 21.3767 16.223 21.3766H19.7771C20.2111 21.3767 20.6272 21.5546 20.9341 21.8713L22.091 23.0649C22.5001 23.487 22.9091 23.9091 23.7273 23.9091C24.3783 23.9091 25.0026 23.6423 25.463 23.1673C25.9233 22.6924 26.1819 22.0482 26.1819 21.3766C26.1819 20.0724 25.6877 15.8187 25.6214 15.2497C25.6157 15.2075 25.6124 15.1653 25.6075 15.1222C25.5247 14.291 25.1461 13.521 24.5449 12.9611C23.9437 12.4011 23.1627 12.0911 22.3528 12.0909Z" stroke="#9475ed" stroke-width="1.5" stroke-linecap="round" stroke-linejoin="round"/>
</g>
<defs>
<clipPath id="clip0_1_269">
<rect width="36" height="36" fill="white"/>
</clipPath>
</defs>
</svg>
