<svg width="24" height="24" viewBox="0 0 24 24" fill="none" xmlns="http://www.w3.org/2000/svg">
<path d="M7.875 10.6667C7.875 9.95942 8.16473 9.28115 8.68046 8.78105C9.19618 8.28095 9.89565 8 10.625 8C11.3543 8 12.0538 8.28095 12.5695 8.78105C13.0853 9.28115 13.375 9.95942 13.375 10.6667C13.375 11.3739 13.0853 12.0522 12.5695 12.5523C12.0538 13.0524 11.3543 13.3333 10.625 13.3333C9.89565 13.3333 9.19618 13.0524 8.68046 12.5523C8.16473 12.0522 7.875 11.3739 7.875 10.6667ZM10.625 9.33333C10.2603 9.33333 9.91059 9.47381 9.65273 9.72386C9.39487 9.97391 9.25 10.313 9.25 10.6667C9.25 11.0203 9.39487 11.3594 9.65273 11.6095C9.91059 11.8595 10.2603 12 10.625 12C10.9897 12 11.3394 11.8595 11.5973 11.6095C11.8551 11.3594 12 11.0203 12 10.6667C12 10.313 11.8551 9.97391 11.5973 9.72386C11.3394 9.47381 10.9897 9.33333 10.625 9.33333ZM3.0625 4C2.51549 4 1.99089 4.21071 1.60409 4.58579C1.2173 4.96086 1 5.46957 1 6V15.3333C1 15.8638 1.2173 16.3725 1.60409 16.7475C1.99089 17.1226 2.51549 17.3333 3.0625 17.3333H18.1875C18.7345 17.3333 19.2591 17.1226 19.6459 16.7475C20.0327 16.3725 20.25 15.8638 20.25 15.3333V6C20.25 5.46957 20.0327 4.96086 19.6459 4.58579C19.2591 4.21071 18.7345 4 18.1875 4H3.0625ZM2.375 6C2.375 5.82319 2.44743 5.65362 2.57636 5.5286C2.7053 5.40357 2.88016 5.33333 3.0625 5.33333H5.125V6.66667C5.125 7.02029 4.98013 7.35943 4.72227 7.60948C4.46441 7.85952 4.11467 8 3.75 8H2.375V6ZM2.375 9.33333H3.75C4.47935 9.33333 5.17882 9.05238 5.69454 8.55229C6.21027 8.05219 6.5 7.37391 6.5 6.66667V5.33333H14.75V6.66667C14.75 7.37391 15.0397 8.05219 15.5555 8.55229C16.0712 9.05238 16.7707 9.33333 17.5 9.33333H18.875V12H17.5C16.7707 12 16.0712 12.281 15.5555 12.781C15.0397 13.2811 14.75 13.9594 14.75 14.6667V16H6.5V14.6667C6.5 13.9594 6.21027 13.2811 5.69454 12.781C5.17882 12.281 4.47935 12 3.75 12H2.375V9.33333ZM16.125 5.33333H18.1875C18.3698 5.33333 18.5447 5.40357 18.6736 5.5286C18.8026 5.65362 18.875 5.82319 18.875 6V8H17.5C17.1353 8 16.7856 7.85952 16.5277 7.60948C16.2699 7.35943 16.125 7.02029 16.125 6.66667V5.33333ZM18.875 13.3333V15.3333C18.875 15.5101 18.8026 15.6797 18.6736 15.8047C18.5447 15.9298 18.3698 16 18.1875 16H16.125V14.6667C16.125 14.313 16.2699 13.9739 16.5277 13.7239C16.7856 13.4738 17.1353 13.3333 17.5 13.3333H18.875ZM5.125 16H3.0625C2.88016 16 2.7053 15.9298 2.57636 15.8047C2.44743 15.6797 2.375 15.5101 2.375 15.3333V13.3333H3.75C4.11467 13.3333 4.46441 13.4738 4.72227 13.7239C4.98013 13.9739 5.125 14.313 5.125 14.6667V16ZM21.625 15.3333C21.625 16.2174 21.2628 17.0652 20.6182 17.6904C19.9735 18.3155 19.0992 18.6667 18.1875 18.6667H3.86688C4.00911 19.0568 4.27261 19.3945 4.62108 19.6333C4.96954 19.8721 5.3858 20.0002 5.8125 20H18.1875C19.4639 20 20.6879 19.5083 21.5905 18.6332C22.493 17.758 23 16.571 23 15.3333V8.66667C23.0002 8.2529 22.8681 7.84925 22.6218 7.51135C22.3756 7.17344 22.0273 6.91792 21.625 6.78V15.3333Z" fill="black"/>
</svg>
