<svg width="24" height="24" viewBox="0 0 24 24" fill="none" xmlns="http://www.w3.org/2000/svg">
<path d="M4.22222 22H19.7778C20.3671 22 20.9324 21.7647 21.3491 21.3459C21.7659 20.9271 22 20.359 22 19.7667V9.71694C22.0008 9.56998 21.9728 9.4243 21.9175 9.28826C21.8622 9.15221 21.7807 9.02846 21.6778 8.92413L12.7889 2.32471C12.5807 2.11674 12.2991 2 12.0055 2C11.712 2 11.4304 2.11674 11.2222 2.32471L2.33333 8.92413C2.22835 9.02754 2.14482 9.15087 2.08761 9.28696C2.03039 9.42305 2.00061 9.5692 2 9.71694V19.7667C2 20.359 2.23413 20.9271 2.65087 21.3459C3.06762 21.7647 3.63285 22 4.22222 22ZM9.77777 20V14H14.2222V20H9.77777ZM4 10.1748L12.0055 4L20 10.1748V20H16.3V14.1835C16.3 13.5912 16.2103 13.0232 15.7936 12.6043C15.3768 12.1855 14.8116 11.9502 14.2222 11.9502H9.77777C9.1884 11.9502 8.62317 12.1855 8.20642 12.6043C7.78968 13.0232 7.8 13.5912 7.8 14.1835V20H4V10.1748Z" fill="#80808F"/>
</svg>
