<svg width="36" height="36" viewBox="0 0 36 36" fill="none" xmlns="http://www.w3.org/2000/svg">
<g clip-path="url(#clip0_1_311)">
<rect x="0.75" y="0.75" width="34.5" height="34.5" rx="9.25" stroke="#9475ed" stroke-width="1.5"/>
<g clip-path="url(#clip1_1_311)">
<path d="M17.2497 11.4395C17.561 10.8535 18.4008 10.8535 18.7121 11.4395L20.3315 14.4885C20.4511 14.7138 20.668 14.8714 20.9193 14.9156L24.3194 15.5135C24.9729 15.6284 25.2324 16.4271 24.7712 16.9042L22.3719 19.3866C22.1946 19.57 22.1118 19.8249 22.1475 20.0775L22.6295 23.4961C22.7221 24.1532 22.0427 24.6467 21.4464 24.3555L18.3442 22.8408C18.115 22.7288 17.8469 22.7288 17.6176 22.8408L14.5154 24.3555C13.9191 24.6467 13.2397 24.1532 13.3324 23.4961L13.8144 20.0775C13.85 19.8249 13.7672 19.57 13.5899 19.3866L11.1906 16.9042C10.7294 16.4271 10.9889 15.6284 11.6425 15.5135L15.0426 14.9156C15.2939 14.8714 15.5107 14.7138 15.6304 14.4885L17.2497 11.4395Z" stroke="#9475ed" stroke-width="1.5"/>
</g>
</g>
<defs>
<clipPath id="clip0_1_311">
<rect width="36" height="36" fill="white"/>
</clipPath>
<clipPath id="clip1_1_311">
<rect width="20" height="20" fill="white" transform="translate(8 8)"/>
</clipPath>
</defs>
</svg>
