<svg width="24" height="24" viewBox="0 0 24 24" fill="none" xmlns="http://www.w3.org/2000/svg">
<rect x="0.5" y="0.5" width="23" height="23" rx="6.5" stroke="#2A2A32"/>
<g clip-path="url(#clip0_1_827)">
<path d="M11.646 5.14592C11.6925 5.09935 11.7476 5.06241 11.8084 5.0372C11.8691 5.012 11.9343 4.99902 12 4.99902C12.0658 4.99902 12.1309 5.012 12.1917 5.0372C12.2524 5.06241 12.3076 5.09935 12.354 5.14592L13.854 6.64592C13.9005 6.69241 13.9374 6.74759 13.9625 6.80833C13.9877 6.86907 14.0007 6.93417 14.0007 6.99992C14.0007 7.06566 13.9877 7.13076 13.9625 7.1915C13.9374 7.25224 13.9005 7.30743 13.854 7.35392C13.8075 7.40041 13.7523 7.43728 13.6916 7.46244C13.6309 7.4876 13.5658 7.50055 13.5 7.50055C13.4343 7.50055 13.3692 7.4876 13.3084 7.46244C13.2477 7.43728 13.1925 7.40041 13.146 7.35392L12.5 6.70692V8.49992C12.5 8.63253 12.4473 8.7597 12.3536 8.85347C12.2598 8.94724 12.1326 8.99992 12 8.99992C11.8674 8.99992 11.7402 8.94724 11.6465 8.85347C11.5527 8.7597 11.5 8.63253 11.5 8.49992V6.70692L10.854 7.35392C10.8075 7.40041 10.7523 7.43728 10.6916 7.46244C10.6309 7.4876 10.5658 7.50055 10.5 7.50055C10.4343 7.50055 10.3692 7.4876 10.3084 7.46244C10.2477 7.43728 10.1925 7.40041 10.146 7.35392C10.0995 7.30743 10.0627 7.25224 10.0375 7.1915C10.0123 7.13076 9.99939 7.06566 9.99939 6.99992C9.99939 6.93417 10.0123 6.86907 10.0375 6.80833C10.0627 6.74759 10.0995 6.69241 10.146 6.64592L11.646 5.14592ZM6.34302 8.34292C6.43679 8.24918 6.56394 8.19652 6.69652 8.19652C6.82911 8.19652 6.95626 8.24918 7.05002 8.34292L8.46402 9.75692C8.5551 9.85122 8.6055 9.97752 8.60436 10.1086C8.60322 10.2397 8.55064 10.3651 8.45793 10.4578C8.36523 10.5505 8.23982 10.6031 8.10872 10.6043C7.97763 10.6054 7.85132 10.555 7.75702 10.4639L6.34302 9.04992C6.24929 8.95615 6.19663 8.829 6.19663 8.69642C6.19663 8.56383 6.24929 8.43668 6.34302 8.34292ZM17.657 8.34292C17.7508 8.43668 17.8034 8.56383 17.8034 8.69642C17.8034 8.829 17.7508 8.95615 17.657 9.04992L16.243 10.4639C16.1969 10.5117 16.1417 10.5498 16.0807 10.576C16.0197 10.6022 15.9541 10.616 15.8877 10.6165C15.8213 10.6171 15.7555 10.6045 15.694 10.5793C15.6326 10.5542 15.5768 10.5171 15.5298 10.4701C15.4829 10.4232 15.4458 10.3673 15.4206 10.3059C15.3955 10.2444 15.3828 10.1786 15.3834 10.1122C15.384 10.0458 15.3978 9.98022 15.424 9.91921C15.4502 9.85821 15.4883 9.80304 15.536 9.75692L16.95 8.34292C17.0438 8.24918 17.1709 8.19652 17.3035 8.19652C17.4361 8.19652 17.5633 8.24918 17.657 8.34292ZM12 10.9999C12.5267 10.9998 13.0442 11.1383 13.5003 11.4015C13.9565 11.6647 14.3354 12.0434 14.5988 12.4995C14.8622 12.9556 15.0009 13.473 15.0009 13.9997C15.001 14.5264 14.8624 15.0438 14.599 15.4999H9.40002C9.13664 15.0437 8.99801 14.5262 8.9981 13.9994C8.99818 13.4727 9.13697 12.9552 9.4005 12.4991C9.66404 12.043 10.043 11.6643 10.4993 11.4011C10.9557 11.138 11.4732 10.9996 12 10.9999ZM15.71 15.4999C15.9552 14.8928 16.0476 14.2347 15.9791 13.5835C15.9105 12.9323 15.6832 12.3079 15.317 11.7651C14.9508 11.2223 14.4569 10.7777 13.8788 10.4703C13.3006 10.1629 12.6558 10.0021 12.001 10.0021C11.3462 10.0021 10.7015 10.1629 10.1233 10.4703C9.54513 10.7777 9.05127 11.2223 8.68507 11.7651C8.31887 12.3079 8.09152 12.9323 8.02299 13.5835C7.95446 14.2347 8.04684 14.8928 8.29202 15.4999H4.49902C4.36642 15.4999 4.23924 15.5526 4.14547 15.6464C4.0517 15.7401 3.99902 15.8673 3.99902 15.9999C3.99902 16.1325 4.0517 16.2597 4.14547 16.3535C4.23924 16.4472 4.36642 16.4999 4.49902 16.4999H19.499C19.6316 16.4999 19.7588 16.4472 19.8526 16.3535C19.9463 16.2597 19.999 16.1325 19.999 15.9999C19.999 15.8673 19.9463 15.7401 19.8526 15.6464C19.7588 15.5526 19.6316 15.4999 19.499 15.4999H15.709H15.71ZM4.00002 13.9999C4.00002 13.8673 4.0527 13.7401 4.14647 13.6464C4.24024 13.5526 4.36742 13.4999 4.50002 13.4999H6.50002C6.63263 13.4999 6.75981 13.5526 6.85358 13.6464C6.94734 13.7401 7.00002 13.8673 7.00002 13.9999C7.00002 14.1325 6.94734 14.2597 6.85358 14.3535C6.75981 14.4472 6.63263 14.4999 6.50002 14.4999H4.50002C4.36742 14.4999 4.24024 14.4472 4.14647 14.3535C4.0527 14.2597 4.00002 14.1325 4.00002 13.9999ZM17 13.9999C17 13.8673 17.0527 13.7401 17.1465 13.6464C17.2402 13.5526 17.3674 13.4999 17.5 13.4999H19.5C19.6326 13.4999 19.7598 13.5526 19.8536 13.6464C19.9473 13.7401 20 13.8673 20 13.9999C20 14.1325 19.9473 14.2597 19.8536 14.3535C19.7598 14.4472 19.6326 14.4999 19.5 14.4999H17.5C17.3674 14.4999 17.2402 14.4472 17.1465 14.3535C17.0527 14.2597 17 14.1325 17 13.9999Z" fill="#2A2A32"/>
</g>
<defs>
<clipPath id="clip0_1_827">
<rect width="16" height="16" fill="white" transform="translate(4 4)"/>
</clipPath>
</defs>
</svg>
