<svg width="24" height="24" viewBox="0 0 24 24" fill="none" xmlns="http://www.w3.org/2000/svg">
<rect x="0.5" y="0.5" width="23" height="23" rx="6.5" stroke="#2A2A32"/>
<path d="M18.2687 8.48744H18.2625C18.1856 8.35322 18.0732 8.24289 17.9375 8.16869L12.4375 5.06244C12.3058 4.98853 12.1573 4.94971 12.0062 4.94971C11.8552 4.94971 11.7067 4.98853 11.575 5.06244L6.07498 8.15619C5.95002 8.22707 5.84475 8.32804 5.76873 8.44994L5.74998 8.47494H5.74373C5.67164 8.60737 5.63302 8.75542 5.63123 8.90619V15.0687C5.63102 15.2237 5.672 15.376 5.74997 15.51C5.82794 15.6439 5.9401 15.7548 6.07498 15.8312L11.575 18.9249C11.6924 18.9896 11.8225 19.028 11.9562 19.0374H12.0625C12.1941 19.0271 12.3219 18.9888 12.4375 18.9249L17.9375 15.8312C18.0724 15.7548 18.1845 15.6439 18.2625 15.51C18.3404 15.376 18.3814 15.2237 18.3812 15.0687V8.91869C18.3834 8.76741 18.3445 8.61839 18.2687 8.48744ZM11.9437 5.71244L12.0062 5.69994L12.0687 5.71244L17.2437 8.62494L15.075 9.85619L9.77498 6.93119L11.9437 5.71244ZM12.0625 11.5687L6.77498 8.62494L9.00623 7.36869L14.3125 10.2937L12.0625 11.5687ZM6.44373 15.1937C6.42492 15.1815 6.4094 15.1648 6.3985 15.1452C6.38761 15.1256 6.38168 15.1036 6.38123 15.0812V9.26244L11.6875 12.2187L11.6375 18.1124L6.44373 15.1937ZM17.5687 15.1937L12.3875 18.1062L12.4375 12.2187L14.6937 10.9374V13.5312C14.6937 13.6306 14.7332 13.726 14.8036 13.7964C14.8739 13.8667 14.9693 13.9062 15.0687 13.9062C15.1682 13.9062 15.2636 13.8667 15.3339 13.7964C15.4042 13.726 15.4437 13.6306 15.4437 13.5312V10.5124L17.6312 9.26869V15.0812C17.6308 15.1036 17.6248 15.1256 17.6139 15.1452C17.6031 15.1648 17.5875 15.1815 17.5687 15.1937Z" fill="#2A2A32"/>
</svg>
