<svg width="37" height="37" viewBox="0 0 37 37" fill="none" xmlns="http://www.w3.org/2000/svg">
<g clip-path="url(#clip0_32_83)">
<rect x="0.75" y="0.75" width="34.5" height="34.5" rx="9.25" stroke="#9475ed" stroke-width="1.5"/>
<path d="M15.4884 9.00098L10.4651 9.00022C10.0765 9.00016 9.70391 9.15447 9.42919 9.42919C9.15446 9.70391 9.00016 10.0765 9.00021 10.4651L9.00095 15.4884C9.00098 15.6808 9.0389 15.8713 9.11256 16.0491C9.18621 16.2268 9.29416 16.3884 9.43023 16.5244C9.56629 16.6605 9.72782 16.7684 9.90559 16.8421C10.0834 16.9158 10.2739 16.9537 10.4663 16.9537L15.4895 16.9545C15.6819 16.9545 15.8725 16.9166 16.0502 16.843C16.2279 16.7694 16.3894 16.6615 16.5255 16.5255C16.6615 16.3895 16.7694 16.228 16.843 16.0502C16.9166 15.8725 16.9545 15.682 16.9544 15.4896L16.9537 10.4663C16.9537 10.2739 16.9158 10.0834 16.8421 9.90562C16.7684 9.72785 16.6605 9.56632 16.5244 9.43025C16.3884 9.29418 16.2268 9.18624 16.0491 9.11258C15.8713 9.03893 15.6808 9.001 15.4884 9.00098ZM15.6986 15.4894C15.6986 15.5449 15.6766 15.5981 15.6373 15.6374C15.5981 15.6766 15.5449 15.6987 15.4894 15.6986L10.4661 15.6979C10.4106 15.6979 10.3573 15.6758 10.3181 15.6366C10.2788 15.5973 10.2568 15.5441 10.2568 15.4886L10.256 10.4653C10.256 10.4098 10.2781 10.3566 10.3173 10.3173C10.3566 10.2781 10.4098 10.256 10.4653 10.256L15.4886 10.2568C15.5441 10.2568 15.5973 10.2789 15.6366 10.3181C15.6758 10.3574 15.6979 10.4106 15.6979 10.4661L15.6986 15.4894ZM15.4898 19.0475L10.4666 19.0467C10.078 19.0467 9.70538 19.201 9.43066 19.4757C9.15594 19.7504 9.00163 20.1231 9.00169 20.5116L9.00242 25.5349C9.00248 25.9235 9.1569 26.2961 9.4317 26.5709C9.7065 26.8457 10.0792 27.0002 10.4678 27.0002L15.491 27.001C15.6834 27.001 15.8739 26.9631 16.0517 26.8895C16.2294 26.8159 16.3909 26.708 16.5269 26.572C16.663 26.436 16.7709 26.2745 16.8445 26.0967C16.9181 25.919 16.9559 25.7285 16.9559 25.5361L16.9552 20.5128C16.9551 20.3204 16.9172 20.1299 16.8436 19.9521C16.7699 19.7744 16.662 19.6128 16.5259 19.4768C16.3898 19.3407 16.2283 19.2328 16.0505 19.1591C15.8728 19.0854 15.6822 19.0475 15.4898 19.0475ZM15.7001 25.5359C15.7001 25.5914 15.6781 25.6446 15.6388 25.6839C15.5996 25.7231 15.5463 25.7452 15.4908 25.7452L10.4676 25.7444C10.4121 25.7444 10.3588 25.7223 10.3196 25.6831C10.2803 25.6438 10.2582 25.5906 10.2582 25.5351L10.2575 20.5118C10.2575 20.4563 10.2795 20.4031 10.3188 20.3638C10.358 20.3246 10.4113 20.3025 10.4668 20.3025L15.49 20.3033C15.5455 20.3033 15.5988 20.3254 15.638 20.3646C15.6773 20.4039 15.6994 20.4571 15.6994 20.5126L15.7001 25.5359ZM25.5349 9.00249L20.5116 9.00173C20.1231 9.00167 19.7504 9.15598 19.4757 9.4307C19.201 9.70542 19.0467 10.0781 19.0467 10.4666L19.0475 15.4899C19.0475 15.6823 19.0854 15.8728 19.1591 16.0506C19.2327 16.2283 19.3407 16.3899 19.4767 16.5259C19.6128 16.662 19.7743 16.77 19.9521 16.8436C20.1299 16.9173 20.3204 16.9552 20.5128 16.9552L25.5361 16.956C25.7285 16.956 25.919 16.9181 26.0967 16.8445C26.2745 16.7709 26.436 16.663 26.572 16.527C26.708 16.391 26.8159 16.2295 26.8895 16.0517C26.9631 15.874 27.001 15.6835 27.001 15.4911L27.0002 10.4678C27.0002 10.0792 26.8457 9.70657 26.5709 9.43176C26.2961 9.15696 25.9235 9.00254 25.5349 9.00249ZM25.7451 15.4909C25.7451 15.5464 25.7231 15.5996 25.6839 15.6389C25.6446 15.6781 25.5914 15.7002 25.5359 15.7002L20.5126 15.6994C20.4571 15.6994 20.4039 15.6773 20.3646 15.6381C20.3253 15.5988 20.3033 15.5456 20.3033 15.4901L20.3025 10.4668C20.3025 10.4113 20.3246 10.3581 20.3638 10.3188C20.4031 10.2796 20.4563 10.2575 20.5118 10.2575L25.5351 10.2583C25.5906 10.2583 25.6438 10.2804 25.6831 10.3196C25.7223 10.3589 25.7444 10.4121 25.7444 10.4676L25.7451 15.4909ZM19.0486 23.0248L19.0481 19.6759C19.0481 19.5094 19.1142 19.3497 19.2319 19.232C19.3497 19.1142 19.5094 19.0481 19.6759 19.0481C19.8424 19.0481 20.0021 19.1143 20.1199 19.2321C20.2377 19.3499 20.3039 19.5096 20.3039 19.6761L20.3044 23.025C20.3044 23.1915 20.2383 23.3512 20.1205 23.4689C20.0028 23.5867 19.8431 23.6528 19.6766 23.6528C19.51 23.6527 19.3503 23.5866 19.2325 23.4688C19.1148 23.351 19.0486 23.1913 19.0486 23.0248ZM27.0018 21.3515C27.0018 21.5181 26.9357 21.6778 26.818 21.7955C26.7002 21.9133 26.5405 21.9794 26.374 21.9794L23.6531 21.9789L23.6537 26.3743C23.6537 26.5408 23.5876 26.7005 23.4699 26.8183C23.3521 26.936 23.1924 27.0021 23.0259 27.0021L19.6771 27.0016C19.5105 27.0016 19.3508 26.9354 19.233 26.8176C19.1153 26.6999 19.0491 26.5401 19.0491 26.3736C19.049 26.2071 19.1152 26.0474 19.2329 25.9296C19.3506 25.8119 19.5103 25.7458 19.6769 25.7458L22.3978 25.7462L22.3969 19.6764C22.3969 19.5099 22.463 19.3502 22.5808 19.2325C22.6985 19.1147 22.8582 19.0486 23.0247 19.0486C23.1913 19.0486 23.351 19.1148 23.4688 19.2326C23.5865 19.3504 23.6527 19.5101 23.6527 19.6766L23.6529 20.7231L26.3738 20.7235C26.5403 20.7236 26.7001 20.7897 26.8178 20.9075C26.9356 21.0253 27.0018 21.185 27.0018 21.3515ZM27.0023 24.7004L27.0025 26.3748C27.0026 26.5413 26.9364 26.701 26.8187 26.8188C26.701 26.9365 26.5413 27.0026 26.3747 27.0026C26.2082 27.0026 26.0485 26.9364 25.9307 26.8186C25.8129 26.7009 25.7468 26.5411 25.7467 26.3746L25.7465 24.7002C25.7465 24.5337 25.8126 24.374 25.9303 24.2562C26.0481 24.1385 26.2078 24.0724 26.3743 24.0724C26.5408 24.0724 26.7006 24.1386 26.8183 24.2564C26.9361 24.3741 27.0023 24.5338 27.0023 24.7004Z" fill="#9475ed"/>
</g>
<defs>
<clipPath id="clip0_32_83">
<rect width="36" height="36" fill="white" transform="translate(36.2118 35.9994) rotate(179.662)"/>
</clipPath>
</defs>
</svg>
