<svg width="8" height="8" viewBox="0 0 8 8" fill="none" xmlns="http://www.w3.org/2000/svg">
<path d="M7.74143 2.81703L5.34319 2.45204L4.27111 0.176068C4.24183 0.113753 4.19365 0.0633076 4.13415 0.0326447C3.98491 -0.0445069 3.80355 0.0197861 3.72893 0.176068L2.65685 2.45204L0.258607 2.81703C0.192487 2.82692 0.132035 2.85956 0.0857515 2.90902C0.0297973 2.96924 -0.0010361 3.05026 2.65856e-05 3.13428C0.00108927 3.2183 0.033961 3.29844 0.0914189 3.35709L1.82658 5.12861L1.41664 7.6301C1.40703 7.68829 1.41318 7.74814 1.43439 7.80286C1.4556 7.85757 1.49104 7.90497 1.53666 7.93967C1.58229 7.97438 1.6363 7.995 1.69255 7.9992C1.7488 8.0034 1.80505 7.99101 1.85492 7.96344L4.00002 6.78242L6.14512 7.96344C6.20368 7.99608 6.27169 8.00696 6.33687 7.99509C6.50122 7.96542 6.61173 7.80221 6.5834 7.6301L6.17346 5.12861L7.90862 3.35709C7.95585 3.30862 7.98702 3.24532 7.99646 3.17608C8.02197 3.00298 7.90673 2.84275 7.74143 2.81703Z" fill="#80808F"/>
</svg>
