<svg width="64" height="64" viewBox="0 0 64 64" fill="none" xmlns="http://www.w3.org/2000/svg">
<path d="M27.5 38.3L22.25 33.05C22.1127 32.9111 21.9492 32.8007 21.769 32.7254C21.5888 32.6501 21.3954 32.6114 21.2 32.6114C21.0047 32.6114 20.8113 32.6501 20.6311 32.7254C20.4508 32.8007 20.2873 32.9111 20.15 33.05C20.0111 33.1873 19.9007 33.3508 19.8254 33.531C19.7501 33.7113 19.7114 33.9047 19.7114 34.1C19.7114 34.2953 19.7501 34.4887 19.8254 34.669C19.9007 34.8492 20.0111 35.0127 20.15 35.15L26.435 41.435C27.02 42.02 27.965 42.02 28.55 41.435L44.45 25.55C44.589 25.4127 44.6993 25.2492 44.7746 25.069C44.8499 24.8887 44.8887 24.6953 44.8887 24.5C44.8887 24.3047 44.8499 24.1113 44.7746 23.931C44.6993 23.7508 44.589 23.5873 44.45 23.45C44.3127 23.3111 44.1492 23.2007 43.969 23.1254C43.7888 23.0501 43.5954 23.0114 43.4 23.0114C43.2047 23.0114 43.0113 23.0501 42.8311 23.1254C42.6508 23.2007 42.4873 23.3111 42.35 23.45L27.5 38.3Z" fill="#F7F8FC"/>
<circle cx="32" cy="32" r="30.75" stroke="#F7F8FC" stroke-width="2.5"/>
</svg>
