<svg width="36" height="36" viewBox="0 0 36 36" fill="none" xmlns="http://www.w3.org/2000/svg">
<g clip-path="url(#clip0_1_214)">
<rect x="0.75" y="0.75" width="34.5" height="34.5" rx="9.25" stroke="#9475ed" stroke-width="1.5"/>
<path d="M22.725 9C23.0759 9 23.3642 9.25195 23.3969 9.57411L23.4 9.63529L23.4006 10.0872C24.2769 10.1447 24.7163 10.2889 25.1583 10.5114C25.745 10.8067 26.2054 11.24 26.5192 11.7922C26.8329 12.3443 27 12.892 27 14.4023V22.6565C27 24.1668 26.8329 24.7145 26.5192 25.2667C26.2054 25.8188 25.745 26.2521 25.1583 26.5474C24.5717 26.8427 23.9897 27 22.385 27H13.615C12.0103 27 11.4283 26.8427 10.8417 26.5474C10.255 26.2521 9.79459 25.8188 9.48084 25.2667C9.16709 24.7145 9 24.1668 9 22.6565V14.4023C9 12.892 9.16709 12.3443 9.48084 11.7922C9.79459 11.24 10.255 10.8067 10.8417 10.5114C11.2838 10.2888 11.7232 10.1447 12.5998 10.0872L12.6 9.63529C12.6 9.28443 12.9022 9 13.275 9C13.6259 9 13.9142 9.25195 13.9469 9.57411L13.95 9.63529V10.0588H22.05V9.63529C22.05 9.28443 22.3522 9 22.725 9ZM25.65 15.5647H10.35L10.3504 22.7898C10.3567 23.873 10.4428 24.2653 10.6713 24.6674C10.8592 24.9982 11.1269 25.2501 11.4783 25.427C11.9228 25.6507 12.3557 25.7294 13.615 25.7294H22.385C23.6443 25.7294 24.0773 25.6507 24.5217 25.427C24.8731 25.2501 25.1408 24.9982 25.3287 24.6674C25.5664 24.2492 25.65 23.8417 25.65 22.6565V15.5647ZM13.8231 21.9176C14.0237 21.9176 14.0965 21.9373 14.1698 21.9742C14.2431 22.0111 14.3007 22.0653 14.3399 22.1343C14.3791 22.2033 14.4 22.2718 14.4 22.4606V23.0688C14.4 23.2576 14.3791 23.3261 14.3399 23.3951C14.3007 23.4641 14.2431 23.5183 14.1698 23.5552C14.0965 23.5921 14.0237 23.6118 13.8231 23.6118H13.1769C12.9763 23.6118 12.9035 23.5921 12.8302 23.5552C12.7569 23.5183 12.6993 23.4641 12.6601 23.3951C12.6209 23.3261 12.6 23.2576 12.6 23.0688V22.4606C12.6 22.2718 12.6209 22.2033 12.6601 22.1343C12.6993 22.0653 12.7569 22.0111 12.8302 21.9742C12.9035 21.9373 12.9763 21.9176 13.1769 21.9176H13.8231ZM18.3231 21.9176C18.5237 21.9176 18.5965 21.9373 18.6698 21.9742C18.7431 22.0111 18.8007 22.0653 18.8399 22.1343C18.8791 22.2033 18.9 22.2718 18.9 22.4606V23.0688C18.9 23.2576 18.8791 23.3261 18.8399 23.3951C18.8007 23.4641 18.7431 23.5183 18.6698 23.5552C18.5965 23.5921 18.5237 23.6118 18.3231 23.6118H17.6769C17.4763 23.6118 17.4035 23.5921 17.3302 23.5552C17.2569 23.5183 17.1993 23.4641 17.1601 23.3951C17.1209 23.3261 17.1 23.2576 17.1 23.0688V22.4606C17.1 22.2718 17.1209 22.2033 17.1601 22.1343C17.1993 22.0653 17.2569 22.0111 17.3302 21.9742C17.4035 21.9373 17.4763 21.9176 17.6769 21.9176H18.3231ZM22.8231 21.9176C23.0237 21.9176 23.0965 21.9373 23.1698 21.9742C23.2431 22.0111 23.3007 22.0653 23.3399 22.1343C23.3791 22.2033 23.4 22.2718 23.4 22.4606V23.0688C23.4 23.2576 23.3791 23.3261 23.3399 23.3951C23.3007 23.4641 23.2431 23.5183 23.1698 23.5552C23.0965 23.5921 23.0237 23.6118 22.8231 23.6118H22.1769C21.9763 23.6118 21.9035 23.5921 21.8302 23.5552C21.7569 23.5183 21.6993 23.4641 21.6601 23.3951C21.6209 23.3261 21.6 23.2576 21.6 23.0688V22.4606C21.6 22.2718 21.6209 22.2033 21.6601 22.1343C21.6993 22.0653 21.7569 22.0111 21.8302 21.9742C21.9035 21.9373 21.9763 21.9176 22.1769 21.9176H22.8231ZM13.8231 17.6824C14.0237 17.6824 14.0965 17.702 14.1698 17.7389C14.2431 17.7758 14.3007 17.83 14.3399 17.899C14.3791 17.968 14.4 18.0365 14.4 18.2253V18.8335C14.4 19.0223 14.3791 19.0908 14.3399 19.1598C14.3007 19.2288 14.2431 19.283 14.1698 19.3199C14.0965 19.3568 14.0237 19.3765 13.8231 19.3765H13.1769C12.9763 19.3765 12.9035 19.3568 12.8302 19.3199C12.7569 19.283 12.6993 19.2288 12.6601 19.1598C12.6209 19.0908 12.6 19.0223 12.6 18.8335V18.2253C12.6 18.0365 12.6209 17.968 12.6601 17.899C12.6993 17.83 12.7569 17.7758 12.8302 17.7389C12.9035 17.702 12.9763 17.6824 13.1769 17.6824H13.8231ZM18.3231 17.6824C18.5237 17.6824 18.5965 17.702 18.6698 17.7389C18.7431 17.7758 18.8007 17.83 18.8399 17.899C18.8791 17.968 18.9 18.0365 18.9 18.2253V18.8335C18.9 19.0223 18.8791 19.0908 18.8399 19.1598C18.8007 19.2288 18.7431 19.283 18.6698 19.3199C18.5965 19.3568 18.5237 19.3765 18.3231 19.3765H17.6769C17.4763 19.3765 17.4035 19.3568 17.3302 19.3199C17.2569 19.283 17.1993 19.2288 17.1601 19.1598C17.1209 19.0908 17.1 19.0223 17.1 18.8335V18.2253C17.1 18.0365 17.1209 17.968 17.1601 17.899C17.1993 17.83 17.2569 17.7758 17.3302 17.7389C17.4035 17.702 17.4763 17.6824 17.6769 17.6824H18.3231ZM22.8231 17.6824C23.0237 17.6824 23.0965 17.702 23.1698 17.7389C23.2431 17.7758 23.3007 17.83 23.3399 17.899C23.3791 17.968 23.4 18.0365 23.4 18.2253V18.8335C23.4 19.0223 23.3791 19.0908 23.3399 19.1598C23.3007 19.2288 23.2431 19.283 23.1698 19.3199C23.0965 19.3568 23.0237 19.3765 22.8231 19.3765H22.1769C21.9763 19.3765 21.9035 19.3568 21.8302 19.3199C21.7569 19.283 21.6993 19.2288 21.6601 19.1598C21.6209 19.0908 21.6 19.0223 21.6 18.8335V18.2253C21.6 18.0365 21.6209 17.968 21.6601 17.899C21.6993 17.83 21.7569 17.7758 21.8302 17.7389C21.9035 17.702 21.9763 17.6824 22.1769 17.6824H22.8231ZM22.05 11.3294H13.95V11.5412C13.95 11.892 13.6478 12.1765 13.275 12.1765C12.9241 12.1765 12.6358 11.9245 12.6031 11.6024L12.6 11.5412L12.5997 11.3581C12.0656 11.398 11.7745 11.4827 11.4783 11.6318C11.1269 11.8087 10.8592 12.0606 10.6713 12.3914C10.4428 12.7936 10.3567 13.1858 10.3504 14.269L10.35 14.2941H25.6495L25.6496 14.269C25.6433 13.1858 25.5572 12.7936 25.3287 12.3914C25.1408 12.0606 24.8731 11.8087 24.5217 11.6318C24.2256 11.4828 23.9345 11.3981 23.4008 11.3582L23.4 11.5412C23.4 11.892 23.0978 12.1765 22.725 12.1765C22.3741 12.1765 22.0858 11.9245 22.0531 11.6024L22.05 11.5412V11.3294Z" fill="#9475ed"/>
</g>
<defs>
<clipPath id="clip0_1_214">
<rect width="36" height="36" fill="white"/>
</clipPath>
</defs>
</svg>
