<svg width="20" height="20" viewBox="0 0 20 20" fill="none" xmlns="http://www.w3.org/2000/svg">
<path d="M12.5698 6.73016L12.6834 6.9713L12.9469 7.0114L18.3414 7.83237C18.3415 7.8324 18.3417 7.83243 18.3419 7.83245C18.4279 7.84618 18.5169 7.94107 18.4974 8.0733L18.4974 8.0733L18.4966 8.07859C18.4898 8.1286 18.4677 8.17212 18.4367 8.20411C18.4366 8.20424 18.4364 8.20437 18.4363 8.2045L14.5331 12.1895L14.3559 12.3704L14.3969 12.6202L15.3192 18.2486L15.3193 18.249C15.3418 18.3854 15.2518 18.482 15.1691 18.4969L15.1684 18.497C15.1345 18.5032 15.0993 18.4974 15.07 18.481L15.0677 18.4797L10.2412 15.8225L10 15.6897L9.75889 15.8225L4.93241 18.4797L4.93163 18.4802C4.90363 18.4956 4.87396 18.5017 4.84546 18.4996C4.8169 18.4975 4.78727 18.4869 4.76018 18.4663C4.73284 18.4455 4.70874 18.4148 4.69357 18.3757C4.67834 18.3364 4.67363 18.2924 4.68075 18.2492L4.68086 18.2486L5.60322 12.6202L5.64417 12.3704L5.46701 12.1895L1.56289 8.20358L1.56286 8.20355C1.52592 8.16584 1.50083 8.10956 1.50002 8.04581C1.49922 7.98239 1.52263 7.92537 1.55863 7.88627C1.58906 7.85404 1.62369 7.83762 1.65584 7.83281L1.65709 7.83262L7.05314 7.0114L7.31666 6.9713L7.43024 6.73016L9.8413 1.61159C9.84144 1.6113 9.84158 1.61101 9.84172 1.61071C9.89485 1.5005 10.0011 1.48086 10.0722 1.51761L10.0728 1.51791C10.1057 1.53486 10.137 1.56533 10.1575 1.6088L10.1577 1.60922L12.5698 6.73016Z" stroke="#2A2A32"/>
</svg>
