<svg width="36" height="36" viewBox="0 0 36 36" fill="none" xmlns="http://www.w3.org/2000/svg">
<g clip-path="url(#clip0_1_240)">
<rect x="0.75" y="0.75" width="34.5" height="34.5" rx="9.25" stroke="#9475ed" stroke-width="1.5"/>
<g clip-path="url(#clip1_1_240)">
<path d="M10.733 19.3465C10.826 17.8582 10.8932 16.8026 11.0491 16.0039C11.2015 15.2228 11.4241 14.7734 11.7702 14.4483C12.1162 14.1232 12.5786 13.9291 13.3678 13.8257C14.1746 13.7199 15.2323 13.7187 16.7235 13.7187H19.1813C20.6724 13.7187 21.7302 13.7199 22.5371 13.8257C23.3263 13.9291 23.7886 14.1232 24.1346 14.4483C24.4806 14.7734 24.7033 15.2228 24.8557 16.0039C25.0115 16.8026 25.0788 17.8582 25.1718 19.3465C25.2759 21.0139 25.3487 22.2005 25.2816 23.1031C25.2158 23.9878 25.0208 24.4984 24.6673 24.8747C24.3138 25.2509 23.8163 25.4774 22.9375 25.5983C22.0408 25.7217 20.852 25.7231 19.1813 25.7231H16.7235C15.0528 25.7231 13.864 25.7217 12.9673 25.5983C12.0884 25.4774 11.591 25.2509 11.2375 24.8747C10.884 24.4984 10.689 23.9878 10.6232 23.1031C10.556 22.2005 10.6288 21.0139 10.733 19.3465Z" stroke="#9475ed" stroke-width="1.5"/>
<path fill-rule="evenodd" clip-rule="evenodd" d="M14.518 15.5814C14.9634 15.5814 15.247 15.0574 15.1398 14.6251C15.0843 14.4011 15.0548 14.1668 15.0548 13.9256C15.0548 12.3253 16.3521 11.028 17.9524 11.028C19.5527 11.028 20.85 12.3253 20.85 13.9256C20.85 14.1668 20.8206 14.4011 20.765 14.6251C20.6579 15.0574 20.9415 15.5814 21.3868 15.5814C21.6059 15.5814 21.8073 15.4527 21.8771 15.2451C22.0163 14.8307 22.0919 14.387 22.0919 13.9256C22.0919 11.6395 20.2385 9.78619 17.9524 9.78619C15.6663 9.78619 13.813 11.6395 13.813 13.9256C13.813 14.387 13.8885 14.8307 14.0277 15.2451C14.0975 15.4527 14.299 15.5814 14.518 15.5814Z" fill="#9475ed"/>
<path d="M15.0547 18.893C15.2834 18.893 15.4687 18.7077 15.4687 18.4791C15.4687 18.2505 15.2834 18.0651 15.0547 18.0651C14.8261 18.0651 14.6408 18.2505 14.6408 18.4791C14.6408 18.7077 14.8261 18.893 15.0547 18.893Z" stroke="#9475ed" stroke-width="1.5"/>
<path d="M20.85 18.893C21.0785 18.893 21.2639 18.7077 21.2639 18.4791C21.2639 18.2505 21.0785 18.0651 20.85 18.0651C20.6214 18.0651 20.436 18.2505 20.436 18.4791C20.436 18.7077 20.6214 18.893 20.85 18.893Z" stroke="#9475ed" stroke-width="1.5"/>
</g>
</g>
<defs>
<clipPath id="clip0_1_240">
<rect width="36" height="36" fill="white"/>
</clipPath>
<clipPath id="clip1_1_240">
<rect width="20" height="20" fill="white" transform="translate(8 8)"/>
</clipPath>
</defs>
</svg>
