<svg width="36" height="36" viewBox="0 0 36 36" fill="none" xmlns="http://www.w3.org/2000/svg">
<g clip-path="url(#clip0_1_278)">
<rect x="0.75" y="0.75" width="34.5" height="34.5" rx="9.25" stroke="#9475ed" stroke-width="1.5"/>
<g clip-path="url(#clip1_1_278)">
<path d="M14.7669 12.0723C13.9451 12.0723 13.2788 12.7386 13.2788 13.5605V17.5289C13.2788 20.1268 15.3848 22.2327 17.9827 22.2327C20.5806 22.2327 22.6867 20.1268 22.6867 17.5289V13.5605C22.6867 12.7386 22.0203 12.0723 21.1985 12.0723H14.7669Z" stroke="#9475ed" stroke-width="1.5"/>
<path d="M17.9827 22.7972V23.5499" stroke="#9475ed" stroke-width="1.5" stroke-linecap="round"/>
<path d="M20.2405 24.1143H15.7247C15.2051 24.1143 14.7839 24.5355 14.7839 25.0551C14.7839 25.5746 15.2051 25.9959 15.7247 25.9959H20.2405C20.76 25.9959 21.1813 25.5746 21.1813 25.0551C21.1813 24.5355 20.76 24.1143 20.2405 24.1143Z" stroke="#9475ed" stroke-width="1.5"/>
<path d="M13.0906 13.7657C12.0514 13.7657 11.209 14.6081 11.209 15.6472V15.8944C11.209 16.459 11.4333 17.0005 11.8325 17.3997L13.4669 19.0341" stroke="#9475ed" stroke-width="1.5" stroke-linecap="round" stroke-linejoin="round"/>
<path d="M22.8748 13.7657C23.9139 13.7657 24.7563 14.6082 24.7563 15.6473V15.8945C24.7563 16.4591 24.532 17.0005 24.1328 17.3997L22.4984 19.0341" stroke="#9475ed" stroke-width="1.5" stroke-linecap="round" stroke-linejoin="round"/>
</g>
</g>
<defs>
<clipPath id="clip0_1_278">
<rect width="36" height="36" fill="white"/>
</clipPath>
<clipPath id="clip1_1_278">
<rect width="20" height="20" fill="white" transform="translate(8 9)"/>
</clipPath>
</defs>
</svg>
