<svg width="24" height="24" viewBox="0 0 24 24" fill="none" xmlns="http://www.w3.org/2000/svg">
<path d="M11.9949 15.3677C12.431 15.3677 12.8062 15.0168 12.8062 14.6074V4.59681L12.7454 3.13469L13.4248 3.82676L14.9662 5.40585C15.1082 5.56181 15.311 5.63979 15.5138 5.63979C15.9296 5.63979 16.2541 5.34736 16.2541 4.94772C16.2541 4.74302 16.1628 4.58706 16.0107 4.44085L12.5831 1.26318C12.3803 1.06823 12.2079 1 11.9949 1C11.7921 1 11.6197 1.06823 11.4068 1.26318L7.97916 4.44085C7.82704 4.58706 7.74592 4.74302 7.74592 4.94772C7.74592 5.34736 8.05014 5.63979 8.47606 5.63979C8.66873 5.63979 8.89183 5.56181 9.0338 5.40585L10.5651 3.82676L11.2546 3.13469L11.1938 4.59681V14.6074C11.1938 15.0168 11.5589 15.3677 11.9949 15.3677ZM6.18423 23H17.8158C19.9352 23 21 21.9863 21 19.9783V10.2503C21 8.24236 19.9352 7.22862 17.8158 7.22862H14.9865V8.79796H17.7854C18.7893 8.79796 19.3673 9.32432 19.3673 10.3381V19.8906C19.3673 20.9043 18.7893 21.4307 17.7854 21.4307H6.20451C5.19042 21.4307 4.63268 20.9043 4.63268 19.8906V10.3381C4.63268 9.32432 5.19042 8.79796 6.20451 8.79796H9.01352V7.22862H6.18423C4.06479 7.22862 3 8.24236 3 10.2503V19.9783C3 21.9863 4.06479 23 6.18423 23Z" fill="#2A2A32"/>
</svg>
