<svg width="12" height="12" viewBox="0 0 12 12" fill="none" xmlns="http://www.w3.org/2000/svg">
<path d="M0.968997 0.96912C1.03867 0.899275 1.12143 0.84386 1.21255 0.806051C1.30366 0.768241 1.40135 0.748779 1.5 0.748779C1.59865 0.748779 1.69633 0.768241 1.78745 0.806051C1.87857 0.84386 1.96133 0.899275 2.031 0.96912L6 4.93962L9.969 0.96912C10.0387 0.899388 10.1215 0.844073 10.2126 0.806334C10.3037 0.768596 10.4014 0.749172 10.5 0.749172C10.5986 0.749172 10.6963 0.768596 10.7874 0.806334C10.8785 0.844073 10.9613 0.899388 11.031 0.96912C11.1007 1.03885 11.156 1.12164 11.1938 1.21274C11.2315 1.30385 11.2509 1.4015 11.2509 1.50012C11.2509 1.59874 11.2315 1.69639 11.1938 1.7875C11.156 1.8786 11.1007 1.96139 11.031 2.03112L7.0605 6.00012L11.031 9.96912C11.1007 10.0389 11.156 10.1216 11.1938 10.2127C11.2315 10.3039 11.2509 10.4015 11.2509 10.5001C11.2509 10.5987 11.2315 10.6964 11.1938 10.7875C11.156 10.8786 11.1007 10.9614 11.031 11.0311C10.9613 11.1009 10.8785 11.1562 10.7874 11.1939C10.6963 11.2316 10.5986 11.2511 10.5 11.2511C10.4014 11.2511 10.3037 11.2316 10.2126 11.1939C10.1215 11.1562 10.0387 11.1009 9.969 11.0311L6 7.06062L2.031 11.0311C1.96127 11.1009 1.87848 11.1562 1.78737 11.1939C1.69626 11.2316 1.59861 11.2511 1.5 11.2511C1.40138 11.2511 1.30373 11.2316 1.21262 11.1939C1.12151 11.1562 1.03873 11.1009 0.968997 11.0311C0.899266 10.9614 0.843951 10.8786 0.806212 10.7875C0.768474 10.6964 0.74905 10.5987 0.74905 10.5001C0.74905 10.4015 0.768474 10.3039 0.806212 10.2127C0.843951 10.1216 0.899266 10.0389 0.968997 9.96912L4.9395 6.00012L0.968997 2.03112C0.899153 1.96145 0.843738 1.87869 0.805928 1.78757C0.768119 1.69645 0.748657 1.59877 0.748657 1.50012C0.748657 1.40147 0.768119 1.30379 0.805928 1.21267C0.843738 1.12155 0.899153 1.03879 0.968997 0.96912Z" fill="black"/>
</svg>
