<svg width="31" height="14" viewBox="0 0 31 14" fill="none" xmlns="http://www.w3.org/2000/svg">
<path d="M7.14 9.452C7.14 10.18 6.89267 10.7913 6.398 11.286C5.91267 11.7713 5.27333 12.056 4.48 12.14V13.4H3.64V12.154C2.884 12.1073 2.24 11.9067 1.708 11.552C1.176 11.1973 0.793333 10.7213 0.56 10.124L1.4 9.634C1.74533 10.586 2.492 11.1087 3.64 11.202V7.338C2.884 7.07667 2.282 6.778 1.834 6.442C1.31133 6.05 1.05 5.448 1.05 4.636C1.05 3.908 1.29267 3.31533 1.778 2.858C2.282 2.382 2.90267 2.11133 3.64 2.046V0.8H4.48V2.06C5.04 2.12533 5.53 2.312 5.95 2.62C6.37933 2.928 6.706 3.34333 6.93 3.866L6.104 4.328C5.81467 3.59067 5.27333 3.15667 4.48 3.026V6.666C5.264 6.92733 5.87533 7.23533 6.314 7.59C6.86467 8.01933 7.14 8.64 7.14 9.452ZM2.03 4.636C2.03 5.04667 2.15133 5.38267 2.394 5.644C2.646 5.896 3.06133 6.134 3.64 6.358V3.012C3.15467 3.068 2.76267 3.24067 2.464 3.53C2.17467 3.81933 2.03 4.188 2.03 4.636ZM4.48 7.632V11.188C5.00267 11.1133 5.41333 10.922 5.712 10.614C6.01067 10.306 6.16 9.91867 6.16 9.452C6.16 9.01333 6.02467 8.65867 5.754 8.388C5.49267 8.11733 5.068 7.86533 4.48 7.632ZM14.8373 9.452C14.8373 10.18 14.5899 10.7913 14.0953 11.286C13.6099 11.7713 12.9706 12.056 12.1773 12.14V13.4H11.3373V12.154C10.5813 12.1073 9.93727 11.9067 9.40527 11.552C8.87327 11.1973 8.4906 10.7213 8.25727 10.124L9.09727 9.634C9.4426 10.586 10.1893 11.1087 11.3373 11.202V7.338C10.5813 7.07667 9.97927 6.778 9.53127 6.442C9.0086 6.05 8.74727 5.448 8.74727 4.636C8.74727 3.908 8.98993 3.31533 9.47527 2.858C9.97927 2.382 10.5999 2.11133 11.3373 2.046V0.8H12.1773V2.06C12.7373 2.12533 13.2273 2.312 13.6473 2.62C14.0766 2.928 14.4033 3.34333 14.6273 3.866L13.8013 4.328C13.5119 3.59067 12.9706 3.15667 12.1773 3.026V6.666C12.9613 6.92733 13.5726 7.23533 14.0113 7.59C14.5619 8.01933 14.8373 8.64 14.8373 9.452ZM9.72727 4.636C9.72727 5.04667 9.8486 5.38267 10.0913 5.644C10.3433 5.896 10.7586 6.134 11.3373 6.358V3.012C10.8519 3.068 10.4599 3.24067 10.1613 3.53C9.87193 3.81933 9.72727 4.188 9.72727 4.636ZM12.1773 7.632V11.188C12.6999 11.1133 13.1106 10.922 13.4093 10.614C13.7079 10.306 13.8573 9.91867 13.8573 9.452C13.8573 9.01333 13.7219 8.65867 13.4513 8.388C13.1899 8.11733 12.7653 7.86533 12.1773 7.632Z" fill="#80808F"/>
<path d="M22.5345 9.452C22.5345 10.18 22.2872 10.7913 21.7925 11.286C21.3072 11.7713 20.6679 12.056 19.8745 12.14V13.4H19.0345V12.154C18.2785 12.1073 17.6345 11.9067 17.1025 11.552C16.5705 11.1973 16.1879 10.7213 15.9545 10.124L16.7945 9.634C17.1399 10.586 17.8865 11.1087 19.0345 11.202V7.338C18.2785 7.07667 17.6765 6.778 17.2285 6.442C16.7059 6.05 16.4445 5.448 16.4445 4.636C16.4445 3.908 16.6872 3.31533 17.1725 2.858C17.6765 2.382 18.2972 2.11133 19.0345 2.046V0.8H19.8745V2.06C20.4345 2.12533 20.9245 2.312 21.3445 2.62C21.7739 2.928 22.1005 3.34333 22.3245 3.866L21.4985 4.328C21.2092 3.59067 20.6679 3.15667 19.8745 3.026V6.666C20.6585 6.92733 21.2699 7.23533 21.7085 7.59C22.2592 8.01933 22.5345 8.64 22.5345 9.452ZM17.4245 4.636C17.4245 5.04667 17.5459 5.38267 17.7885 5.644C18.0405 5.896 18.4559 6.134 19.0345 6.358V3.012C18.5492 3.068 18.1572 3.24067 17.8585 3.53C17.5692 3.81933 17.4245 4.188 17.4245 4.636ZM19.8745 7.632V11.188C20.3972 11.1133 20.8079 10.922 21.1065 10.614C21.4052 10.306 21.5545 9.91867 21.5545 9.452C21.5545 9.01333 21.4192 8.65867 21.1485 8.388C20.8872 8.11733 20.4625 7.86533 19.8745 7.632ZM30.2318 9.452C30.2318 10.18 29.9845 10.7913 29.4898 11.286C29.0045 11.7713 28.3651 12.056 27.5718 12.14V13.4H26.7318V12.154C25.9758 12.1073 25.3318 11.9067 24.7998 11.552C24.2678 11.1973 23.8851 10.7213 23.6518 10.124L24.4918 9.634C24.8371 10.586 25.5838 11.1087 26.7318 11.202V7.338C25.9758 7.07667 25.3738 6.778 24.9258 6.442C24.4031 6.05 24.1418 5.448 24.1418 4.636C24.1418 3.908 24.3845 3.31533 24.8698 2.858C25.3738 2.382 25.9945 2.11133 26.7318 2.046V0.8H27.5718V2.06C28.1318 2.12533 28.6218 2.312 29.0418 2.62C29.4711 2.928 29.7978 3.34333 30.0218 3.866L29.1958 4.328C28.9065 3.59067 28.3651 3.15667 27.5718 3.026V6.666C28.3558 6.92733 28.9671 7.23533 29.4058 7.59C29.9565 8.01933 30.2318 8.64 30.2318 9.452ZM25.1218 4.636C25.1218 5.04667 25.2431 5.38267 25.4858 5.644C25.7378 5.896 26.1531 6.134 26.7318 6.358V3.012C26.2465 3.068 25.8545 3.24067 25.5558 3.53C25.2665 3.81933 25.1218 4.188 25.1218 4.636ZM27.5718 7.632V11.188C28.0945 11.1133 28.5051 10.922 28.8038 10.614C29.1025 10.306 29.2518 9.91867 29.2518 9.452C29.2518 9.01333 29.1165 8.65867 28.8458 8.388C28.5845 8.11733 28.1598 7.86533 27.5718 7.632Z" fill="#C7C7C7"/>
</svg>
