<svg width="24" height="24" viewBox="0 0 24 24" fill="none" xmlns="http://www.w3.org/2000/svg">
<rect x="0.5" y="0.5" width="23" height="23" rx="6.5" stroke="#2A2A32"/>
<g clip-path="url(#clip0_1_839)">
<path d="M11.646 8.854C11.6925 8.90056 11.7476 8.93751 11.8084 8.96271C11.8691 8.98792 11.9343 9.00089 12 9.00089C12.0658 9.00089 12.1309 8.98792 12.1917 8.96271C12.2524 8.93751 12.3076 8.90056 12.354 8.854L13.854 7.354C13.9005 7.30751 13.9374 7.25232 13.9625 7.19158C13.9877 7.13084 14.0007 7.06574 14.0007 7C14.0007 6.93426 13.9877 6.86916 13.9625 6.80842C13.9374 6.74768 13.9005 6.69249 13.854 6.646C13.8075 6.59951 13.7523 6.56264 13.6916 6.53748C13.6309 6.51232 13.5658 6.49937 13.5 6.49937C13.4343 6.49937 13.3692 6.51232 13.3084 6.53748C13.2477 6.56264 13.1925 6.59951 13.146 6.646L12.5 7.293V5.5C12.5 5.36739 12.4473 5.24021 12.3536 5.14645C12.2598 5.05268 12.1326 5 12 5C11.8674 5 11.7402 5.05268 11.6465 5.14645C11.5527 5.24021 11.5 5.36739 11.5 5.5V7.293L10.854 6.646C10.8075 6.59951 10.7523 6.56264 10.6916 6.53748C10.6309 6.51232 10.5658 6.49937 10.5 6.49937C10.4343 6.49937 10.3692 6.51232 10.3084 6.53748C10.2477 6.56264 10.1925 6.59951 10.146 6.646C10.0995 6.69249 10.0627 6.74768 10.0375 6.80842C10.0123 6.86916 9.99939 6.93426 9.99939 7C9.99939 7.06574 10.0123 7.13084 10.0375 7.19158C10.0627 7.25232 10.0995 7.30751 10.146 7.354L11.646 8.854ZM6.34302 8.344C6.43679 8.25026 6.56394 8.19761 6.69652 8.19761C6.82911 8.19761 6.95626 8.25026 7.05002 8.344L8.46402 9.757C8.5551 9.8513 8.6055 9.9776 8.60436 10.1087C8.60322 10.2398 8.55064 10.3652 8.45793 10.4579C8.36523 10.5506 8.23982 10.6032 8.10872 10.6043C7.97763 10.6055 7.85132 10.5551 7.75702 10.464L6.34302 9.05C6.24929 8.95624 6.19663 8.82908 6.19663 8.6965C6.19663 8.56392 6.24929 8.43676 6.34302 8.343V8.344ZM17.657 8.344C17.7505 8.43772 17.8029 8.56466 17.8029 8.697C17.8029 8.82934 17.7505 8.95628 17.657 9.05L16.243 10.464C16.1969 10.5118 16.1417 10.5498 16.0807 10.5761C16.0197 10.6023 15.9541 10.616 15.8877 10.6166C15.8213 10.6172 15.7555 10.6046 15.694 10.5794C15.6326 10.5543 15.5768 10.5171 15.5298 10.4702C15.4829 10.4233 15.4458 10.3674 15.4206 10.306C15.3955 10.2445 15.3828 10.1787 15.3834 10.1123C15.384 10.0459 15.3978 9.9803 15.424 9.9193C15.4502 9.8583 15.4883 9.80312 15.536 9.757L16.95 8.343C17.0438 8.24926 17.1709 8.19661 17.3035 8.19661C17.4361 8.19661 17.5633 8.24926 17.657 8.343V8.344ZM12 11C12.5267 10.9998 13.0442 11.1383 13.5003 11.4016C13.9565 11.6648 14.3354 12.0435 14.5988 12.4996C14.8622 12.9557 15.0009 13.4731 15.0009 13.9998C15.001 14.5265 14.8624 15.0439 14.599 15.5H9.40002C9.13664 15.0438 8.99801 14.5263 8.9981 13.9995C8.99818 13.4727 9.13697 12.9553 9.4005 12.4992C9.66404 12.0431 10.043 11.6644 10.4993 11.4012C10.9557 11.138 11.4732 10.9997 12 11ZM15.71 15.5C15.9552 14.8928 16.0476 14.2348 15.9791 13.5836C15.9105 12.9324 15.6832 12.308 15.317 11.7652C14.9508 11.2224 14.4569 10.7777 13.8788 10.4704C13.3006 10.163 12.6558 10.0022 12.001 10.0022C11.3462 10.0022 10.7015 10.163 10.1233 10.4704C9.54513 10.7777 9.05127 11.2224 8.68507 11.7652C8.31887 12.308 8.09152 12.9324 8.02299 13.5836C7.95446 14.2348 8.04684 14.8928 8.29202 15.5H4.49902C4.36642 15.5 4.23924 15.5527 4.14547 15.6464C4.0517 15.7402 3.99902 15.8674 3.99902 16C3.99902 16.1326 4.0517 16.2598 4.14547 16.3536C4.23924 16.4473 4.36642 16.5 4.49902 16.5H19.499C19.6316 16.5 19.7588 16.4473 19.8526 16.3536C19.9463 16.2598 19.999 16.1326 19.999 16C19.999 15.8674 19.9463 15.7402 19.8526 15.6464C19.7588 15.5527 19.6316 15.5 19.499 15.5H15.709H15.71ZM4.00002 14C4.00002 13.8674 4.0527 13.7402 4.14647 13.6464C4.24024 13.5527 4.36742 13.5 4.50002 13.5H6.50002C6.63263 13.5 6.75981 13.5527 6.85358 13.6464C6.94734 13.7402 7.00002 13.8674 7.00002 14C7.00002 14.1326 6.94734 14.2598 6.85358 14.3536C6.75981 14.4473 6.63263 14.5 6.50002 14.5H4.50002C4.36742 14.5 4.24024 14.4473 4.14647 14.3536C4.0527 14.2598 4.00002 14.1326 4.00002 14ZM17 14C17 13.8674 17.0527 13.7402 17.1465 13.6464C17.2402 13.5527 17.3674 13.5 17.5 13.5H19.5C19.6326 13.5 19.7598 13.5527 19.8536 13.6464C19.9473 13.7402 20 13.8674 20 14C20 14.1326 19.9473 14.2598 19.8536 14.3536C19.7598 14.4473 19.6326 14.5 19.5 14.5H17.5C17.3674 14.5 17.2402 14.4473 17.1465 14.3536C17.0527 14.2598 17 14.1326 17 14Z" fill="#2A2A32"/>
</g>
<defs>
<clipPath id="clip0_1_839">
<rect width="16" height="16" fill="white" transform="translate(4 4)"/>
</clipPath>
</defs>
</svg>
