<svg width="24" height="24" viewBox="0 0 24 24" fill="none" xmlns="http://www.w3.org/2000/svg">
<path fill-rule="evenodd" clip-rule="evenodd" d="M14.8372 17.2941H16.1818C18.2184 17.2941 19.2366 17.2941 20.0145 16.8838C20.6987 16.5229 21.255 15.9469 21.6037 15.2385C22 14.4332 22 13.379 22 11.2706V8.02353C22 5.91511 22 4.86089 21.6037 4.05558C21.255 3.34719 20.6987 2.77125 20.0145 2.41031C19.2366 2 18.2184 2 16.1818 2H7.81818C5.78164 2 4.76336 2 3.9855 2.41035C3.30126 2.77128 2.74496 3.3472 2.39632 4.05558C2 4.86089 2 5.91511 2 8.02353V11.2706C2 13.379 2 14.4332 2.39636 15.2385C2.74499 15.9469 3.30128 16.5229 3.9855 16.8838C4.76336 17.2941 5.78164 17.2941 7.81818 17.2941H9.16282L8.68555 20.5882H5.40909C5.03255 20.5882 4.72727 20.9043 4.72727 21.2941C4.72727 21.684 5.03255 22 5.40909 22H18.5909C18.9675 22 19.2727 21.684 19.2727 21.2941C19.2727 20.9043 18.9675 20.5882 18.5909 20.5882H15.3145L14.8372 17.2941ZM16.1818 3.41176H7.81818C6.77741 3.41176 6.07882 3.41285 5.54086 3.45835C5.01882 3.50254 4.76923 3.58136 4.60455 3.66824C4.17691 3.8938 3.82924 4.25374 3.61136 4.69647C3.52745 4.86696 3.45132 5.12536 3.40864 5.66584C3.36468 6.22278 3.36364 6.94602 3.36364 8.02353V11.2706C3.36364 12.3481 3.36468 13.0713 3.40864 13.6283C3.45132 14.1688 3.52745 14.4272 3.61136 14.5976C3.82924 15.0404 4.17691 15.4003 4.60455 15.6259C4.76923 15.7128 5.01882 15.7916 5.54086 15.8358C6.07882 15.8813 6.77741 15.8824 7.81818 15.8824H16.1818C17.2226 15.8824 17.9212 15.8813 18.4591 15.8358C18.9812 15.7916 19.2308 15.7128 19.3955 15.6259C19.8231 15.4003 20.1708 15.0404 20.3886 14.5976C20.4725 14.4272 20.5487 14.1688 20.5914 13.6283C20.6353 13.0713 20.6364 12.3481 20.6364 11.2706V8.02353C20.6364 6.94602 20.6353 6.22278 20.5914 5.66584C20.5487 5.12536 20.4725 4.86696 20.3886 4.69647C20.1708 4.25374 19.8231 3.89379 19.3955 3.66824C19.2308 3.58136 18.9812 3.50254 18.4591 3.45835C17.9212 3.41285 17.2226 3.41176 16.1818 3.41176ZM13.4583 17.2941H10.5417L10.0645 20.5882H13.9355L13.4583 17.2941Z" fill="#9475ed"/>
</svg>
