<svg xmlns:xlink="http://www.w3.org/1999/xlink" xmlns="http://www.w3.org/2000/svg" height="22" width="22" class="icon icon--v_share"><defs><symbol viewBox="0 0 24 24" id="v_share"><path fill-rule="evenodd" d="M12.681 4.268a1 1 0 00-1.363 0l-4.5 4.19a1 1 0 001.363 1.464L11 7.298V15a1 1 0 002 0V7.298l2.818 2.624a1 1 0 101.363-1.463l-4.5-4.19zM5 14a1 1 0 10-2 0v3a3 3 0 003 3h12a3 3 0 003-3v-3a1 1 0 10-2 0v3a1 1 0 01-1 1H6a1 1 0 01-1-1v-3z" clip-rule="evenodd"></path></symbol></defs><use xlink:href="#v_share" fill="#595959"></use></svg>